<svg id="Layer_1" data-name="Layer 1" xmlns="http://www.w3.org/2000/svg" viewBox="0 0 212.99 65"><defs><style>.cls-1{fill:#b21a81;}.cls-2{fill:#020201;}.cls-3{fill:#2f2f2f;}.cls-4{fill:#fff;}.cls-5{fill:#3c3e3d;}</style></defs><path class="cls-1" d="M92.7,28.32a15.69,15.69,0,0,1-7.82,2c-7.73,0-11.58-5.05-11.58-10.15s3.94-10.27,12-10.27a14.19,14.19,0,0,1,7.15,1.75v4.58a11.9,11.9,0,0,0-6.8-2.16c-4.14,0-7.21,2.39-7.21,6,0,3.91,3.33,6.1,7.06,6.1a11.5,11.5,0,0,0,5.28-1.38l1.9-1.07Z"/><path class="cls-1" d="M115.29,15.83A17.82,17.82,0,0,0,107.88,14a8.12,8.12,0,0,0-4.56,1.14,5.8,5.8,0,0,0-2.71,5.1c0,3.77,3.15,5.9,6.57,5.9a10,10,0,0,0,3.55-.7V23.12h-2.85v-3.7h7.9v8.19a13.57,13.57,0,0,1-8.52,2.69c-6.39,0-11.81-3.79-11.81-10.21,0-6.22,5-10.21,12-10.21a19.31,19.31,0,0,1,7.82,1.63Z"/><path class="cls-1" d="M133.41,15.51A15.18,15.18,0,0,0,127,13.58c-2.92,0-3,1.43-3,1.64,0,1.19,2,1.89,4.82,2.91,2.51.91,5.48,2.42,5.48,6.28,0,4.61-4.81,5.89-7.79,5.89a15.25,15.25,0,0,1-7-1.93V24.08a12.87,12.87,0,0,0,6.92,2.49c.64,0,3,0,3-1.81,0-1.32-1.14-1.73-3.76-2.63-2.86-1-6.48-2.39-6.48-6.59,0-3,2.54-5.66,7.53-5.66a15.83,15.83,0,0,1,6.74,1.54Z"/><path class="cls-1" d="M144.12,25.22H136.5V21.34h7.62Z"/><path class="cls-1" d="M159.9,30H146.75v-.59c.11-.11,3.12-4,4.4-5.89s3.33-4.78,3.33-7.29a2.72,2.72,0,0,0-2.69-2.8A7.75,7.75,0,0,0,147,15.94V11.77c2.48-1.57,3.94-1.89,5.57-1.89,4.76,0,6.3,3,6.3,5.63,0,1.31-.2,2.68-2.42,6.33-1,1.57-2.62,3.67-3,4.14h6.41Z"/><path class="cls-1" d="M169.42,30.3a5.84,5.84,0,0,1-4.82-2.36c-1.86-2.43-2-6.07-2-7.85,0-8.43,4.09-10.21,6.77-10.21,2.16,0,6.71,1.28,6.71,10.12C176.07,28,172.57,30.3,169.42,30.3Zm-.06-16.69c-1.87,0-2.16,2.83-2.16,6.68,0,2,0,6.3,2.16,6.3,1.25,0,1.69-1.4,1.87-2.36a34.84,34.84,0,0,0,.26-4.35C171.49,15,170.73,13.61,169.36,13.61Z"/><path class="cls-1" d="M192.12,30H179v-.59c.12-.11,3.12-4,4.41-5.89s3.32-4.78,3.32-7.29a2.71,2.71,0,0,0-2.68-2.8,7.79,7.79,0,0,0-4.79,2.47V11.77c2.48-1.57,3.94-1.89,5.58-1.89,4.75,0,6.3,3,6.3,5.63,0,1.31-.21,2.68-2.42,6.33-1,1.57-2.63,3.67-3,4.14h6.42Z"/><path class="cls-1" d="M201.22,17.4a3.76,3.76,0,0,1,1.17-.17c3.41,0,5.57,3,5.57,6.27a6.51,6.51,0,0,1-6.59,6.8c-3.47,0-6.59-2.42-6.59-7.06,0-2.74,1.1-5.17,2.71-7.79l3.44-5.57h4.9Zm.21,3.3c-1.23,0-2.16,1-2.16,3s1,2.88,2.19,2.88c1.57,0,2.21-1.51,2.21-3S202.92,20.7,201.43,20.7Z"/><path class="cls-2" d="M80.54,54.82H74.18l-1.09,3.1h-2.6l5.44-15.21h2.88l5.44,15.21H81.63Zm-.7-2-2.47-7.05-2.49,7.05Z"/><path class="cls-2" d="M97.56,49.44a4.05,4.05,0,0,1-1.75,1.67,6.48,6.48,0,0,1-3.08.65H90v6.16H87.49V42.74h5.24a6.62,6.62,0,0,1,3,.6A4.25,4.25,0,0,1,97.51,45a4.49,4.49,0,0,1,.6,2.3A4.61,4.61,0,0,1,97.56,49.44Zm-2.71-.36a2.34,2.34,0,0,0,.7-1.82q0-2.49-2.82-2.49H90v5h2.75A3,3,0,0,0,94.85,49.08Z"/><path class="cls-2" d="M109.25,57.92l-3.5-6.07h-1.9v6.07h-2.49V42.74h5.24a6.45,6.45,0,0,1,3,.61A4.17,4.17,0,0,1,111.38,45a4.42,4.42,0,0,1,.6,2.29,4.59,4.59,0,0,1-.86,2.7,4.38,4.38,0,0,1-2.66,1.65l3.76,6.29Zm-5.4-8.06h2.75a2.9,2.9,0,0,0,2.11-.7,2.5,2.5,0,0,0,.71-1.88,2.43,2.43,0,0,0-.7-1.85,3,3,0,0,0-2.12-.66h-2.75Z"/><path class="cls-2" d="M118.53,42.74V57.92H116V42.74Z"/><path class="cls-2" d="M125.18,55.91h5.13v2h-7.63V42.74h2.5Z"/><path class="cls-2" d="M139.16,44.26V42h4.54V57.92h-2.51V44.26Z"/><path class="cls-2" d="M155.7,44.18a2.78,2.78,0,0,0-1.77-.51A2.85,2.85,0,0,0,151.35,45a8.63,8.63,0,0,0-.9,4.38,3.83,3.83,0,0,1,1.66-1.49,5.39,5.39,0,0,1,2.36-.52A5.07,5.07,0,0,1,157,48a4.33,4.33,0,0,1,1.72,1.8,5.93,5.93,0,0,1,.63,2.82,6,6,0,0,1-.6,2.73A4.5,4.5,0,0,1,157,57.23a5.56,5.56,0,0,1-2.84.69,5.63,5.63,0,0,1-3.53-1,5.26,5.26,0,0,1-1.79-2.81,16.57,16.57,0,0,1-.52-4.52q0-8,5.64-8a4.81,4.81,0,0,1,3.44,1.18,4.62,4.62,0,0,1,1.47,2.9h-2.29A2.6,2.6,0,0,0,155.7,44.18Zm-4,6.08a2.87,2.87,0,0,0-.93,2.31A3.26,3.26,0,0,0,151.6,55a3.23,3.23,0,0,0,2.42.88,2.82,2.82,0,0,0,2.17-.85,3.19,3.19,0,0,0,.8-2.27,3.46,3.46,0,0,0-.78-2.37,2.88,2.88,0,0,0-2.28-.89A3.34,3.34,0,0,0,151.67,50.26Z"/><path class="cls-2" d="M172.48,49v2.1h-9V49Z"/><path class="cls-2" d="M176.23,44.26V42h4.55V57.92h-2.51V44.26Z"/><path class="cls-2" d="M195.18,43.91l-6.08,14h-2.51l6.14-13.74h-8.08V42.06h10.53Z"/><path class="cls-3" d="M70.75,36.34c43.41-.52,92.12-.53,135.53,0-43.41.53-92.12.53-135.53,0Z"/><path class="cls-1" d="M32.11,47.33c-3.57,0-4.48,1.69-2.64,4.94,1.19,2.12.66,4.34-1.36,5.33a3.47,3.47,0,0,1-4.88-1.44A3.41,3.41,0,0,1,25,51c2-.84,2.66-2.66,2.09-4a5.16,5.16,0,0,0-4.51-2.69,3.1,3.1,0,0,0-2.48,3.75c.35,2.47-.95,4-3.49,4.18a3.47,3.47,0,0,1-3.74-3.71C13,46,14.6,44.7,17,45.05c2.21.32,3.73-1.16,3.79-2.43a5.19,5.19,0,0,0-2.67-4.54c-1.29-.57-3.16,0-4,2.05A3.46,3.46,0,0,1,9,42a3.63,3.63,0,0,1-1.37-5.13A3.53,3.53,0,0,1,13,35.92c1.75,1.32,3.71.95,4.46-.26a5.15,5.15,0,0,0,0-5.29c-.83-1.08-2.78-1.5-4.53-.07A3.45,3.45,0,0,1,7.6,29.17a3.45,3.45,0,0,1,1.27-4.92,3.42,3.42,0,0,1,5.21,1.6c.86,2.18,2.8,2.87,4.17,2.19a5.07,5.07,0,0,0,2.57-4.6c-.18-1.36-1.71-2.61-3.89-2.34a3.41,3.41,0,0,1-4.06-3.64,3.42,3.42,0,0,1,3.58-3.59,3.38,3.38,0,0,1,3.65,4c-.3,2.33,1.15,3.88,2.62,3.94A5.66,5.66,0,0,0,27,19.23c.73-1.42,0-3.29-2.17-4.15s-2.76-2.8-1.71-5a3.56,3.56,0,0,1,5.08-1.49c2,1.27,2.69,3.23,1.24,5.07s-1.27,3.69,0,4.77,3.65.83,5.1.14a2.77,2.77,0,0,0,.68-4.12,3.94,3.94,0,0,1-1-3.56,3.69,3.69,0,0,1,7.16,0,3.4,3.4,0,0,1-1.77,4c-.9.54-2.16.6-2.28,2-.07.92-1.16,2.15,0,2.68,1.54.72,2.8,2.74,4.62,2a3.13,3.13,0,0,0,2.17-3.44c-.37-2.79,1.16-4.41,3.56-4.36a3.41,3.41,0,0,1,3.65,3.51c.16,2.31-1.6,4-4.29,3.68a3.12,3.12,0,0,0-3.61,2.33A5.12,5.12,0,0,0,46,28c1.16.65,3.15.11,4-1.94a3.52,3.52,0,0,1,5.12-2,3.67,3.67,0,0,1,1.5,5.1c-1.14,2-3.41,2.49-5.6.88a3.12,3.12,0,0,0-4.29.27,5.4,5.4,0,0,0,0,5.35A3,3,0,0,0,51,36.1c2.26-1.62,4.41-1.19,5.62.76A3.65,3.65,0,0,1,55.26,42c-2,1.13-4.17.42-5.29-2.12a3,3,0,0,0-3.84-1.8,5.24,5.24,0,0,0-2.65,4.58A3,3,0,0,0,47,45.08c2.78-.25,4.41,1.27,4.41,3.58a3.58,3.58,0,0,1-3.86,3.62c-2.34-.1-3.72-1.68-3.36-4.57.24-1.89-1.16-2.38-2-3.28s-1.6.26-2.29.66c-3.9,2.25-3.87,3.51,0,6.14,1.79,1.24,2.35,3,1.21,4.93a3.37,3.37,0,0,1-4.86,1.42c-2-1-2.43-2.76-1.67-4.81a3.78,3.78,0,0,1,.3-.51Q37.56,47.34,32.11,47.33Z"/><path class="cls-4" d="M40.26,33a8.2,8.2,0,0,1-8.09,8.2A8.11,8.11,0,0,1,32,25,8.27,8.27,0,0,1,40.26,33Z"/><path class="cls-1" d="M32.14,37.22a4.15,4.15,0,1,1,0-8.29,4.15,4.15,0,1,1,0,8.29Z"/><circle class="cls-5" cx="7.39" cy="18.79" r="2.63"/><circle class="cls-5" cx="3.74" cy="33.1" r="2.63"/><circle class="cls-5" cx="7.74" cy="47.32" r="2.63"/><circle class="cls-5" cx="18.34" cy="57.61" r="2.63"/><circle class="cls-5" cx="32.67" cy="61.21" r="2.63"/><circle class="cls-5" cx="46.87" cy="57.15" r="2.63"/><circle class="cls-5" cx="57.12" cy="46.51" r="2.63"/><circle class="cls-5" cx="60.66" cy="32.17" r="2.63"/><circle class="cls-5" cx="56.54" cy="17.98" r="2.63"/><circle class="cls-5" cx="45.86" cy="7.77" r="2.63"/><circle class="cls-5" cx="31.51" cy="4.29" r="2.63"/><circle class="cls-5" cx="17.34" cy="8.47" r="2.63"/><rect class="cls-1" x="34.47" y="30.54" width="6.76" height="4.27"/></svg>