<?xml version="1.0" encoding="utf-8"?>
<!-- Generator: Adobe Illustrator 24.3.0, SVG Export Plug-In . SVG Version: 6.00 Build 0)  -->
<svg version="1.1" id="Layer_1" xmlns="http://www.w3.org/2000/svg" xmlns:xlink="http://www.w3.org/1999/xlink" x="0px" y="0px"
	 viewBox="0 0 155.5 64.7" style="enable-background:new 0 0 155.5 64.7;" xml:space="preserve">
<style type="text/css">
	.st0{fill:#2F2F2F;}
	.st1{fill:#B21A81;}
	.st2{fill:#FFFFFF;}
	.st3{fill:#3C3E3D;}
	.st4{fill:#31BFC3;}
	.st5{opacity:0.25;}
	.st6{fill:#808080;}
	.st7{fill:none;stroke:#808080;stroke-width:0.3983;stroke-miterlimit:10;}
	.st8{fill:#93B48E;}
	.st9{opacity:0.88;fill:none;stroke:#93B48E;stroke-width:0.914;stroke-miterlimit:10;}
	.st10{fill:#E9A036;}
	.st11{fill:#A95A21;}
	.st12{fill:none;stroke:#DE001C;stroke-width:0.4874;stroke-miterlimit:10;}
	.st13{fill:#1C816E;}
	.st14{fill:#5BB9A4;}
	.st15{fill:#122D24;}
	.st16{fill:#175929;}
	.st17{fill:#80BC27;}
	.st18{fill:#7FBA28;}
	.st19{fill:#7FB829;}
	.st20{fill:#80BC28;}
	.st21{fill:#80BC2A;}
	.st22{fill:#3C7651;}
	.st23{fill:#3B7550;}
	.st24{fill:#80AA94;}
	.st25{fill:#FAFCFC;}
	.st26{fill:#25524A;}
	.st27{fill:#A9A01F;}
	.st28{fill:#23995B;}
	.st29{fill:#1D4479;}
	.st30{fill:none;stroke:#262728;stroke-width:1.0774;stroke-miterlimit:10;}
	.st31{fill:#28378C;}
	.st32{fill:#40A6E2;}
	.st33{fill:#FCCE1C;}
	.st34{fill:none;stroke:#737373;stroke-width:1.11;stroke-miterlimit:10;}
	.st35{fill:#00B9D7;}
	.st36{fill:none;stroke:#FFFFFF;stroke-width:1.5619;stroke-miterlimit:10;}
	.st37{fill:#2B3A3B;}
	.st38{fill:none;stroke:#6E1215;stroke-width:0.6419;stroke-miterlimit:10;}
	.st39{fill:none;stroke:#6E1215;stroke-width:0.4466;stroke-miterlimit:10;}
	.st40{opacity:0.88;fill:none;stroke:#93B48E;stroke-width:0.5596;stroke-miterlimit:10;}
	.st41{fill:none;stroke:#FFFFFF;stroke-width:0.9404;stroke-miterlimit:10;}
	.st42{fill:none;stroke:#737373;stroke-width:0.5012;stroke-miterlimit:10;}
	.st43{fill:none;stroke:#FFFFFF;stroke-width:1.3888;stroke-miterlimit:10;}
	.st44{fill:none;stroke:#737373;stroke-width:0.7403;stroke-miterlimit:10;}
	.st45{fill:none;stroke:#23995B;stroke-width:0.6635;stroke-miterlimit:10;}
	.st46{fill:none;stroke:#23995B;stroke-width:0.3962;stroke-miterlimit:10;}
	.st47{fill:none;stroke:#28378C;stroke-width:2;stroke-miterlimit:10;}
	.st48{fill:none;stroke:#28378C;stroke-width:1.0909;stroke-miterlimit:10;}
	.st49{fill:#96AFCE;}
	.st50{fill:#3B3888;}
	.st51{fill:#F2F3F1;}
	.st52{fill:#F2F3F2;}
	.st53{fill:#F1F6F2;}
	.st54{fill:#EFF2F0;}
	.st55{fill:#DFE8E2;}
	.st56{fill:#EDF0EC;}
	.st57{fill:#3CA835;}
	.st58{fill:none;stroke:#DE001C;stroke-width:0.451;stroke-miterlimit:10;}
	.st59{fill:none;stroke:#DE001C;stroke-width:0.1983;stroke-miterlimit:10;}
	.st60{fill:none;stroke:#DE001C;stroke-width:0.3536;stroke-miterlimit:10;}
	.st61{fill:none;stroke:#808080;stroke-width:0.3418;stroke-miterlimit:10;}
	.st62{fill:none;stroke:#808080;stroke-width:0.2279;stroke-miterlimit:10;}
	.st63{fill:#020201;}
	.st64{fill:#37B2B5;}
	.st65{fill:#000100;}
	.st66{fill:none;stroke:#C85119;stroke-width:0.8469;stroke-miterlimit:10;}
	.st67{fill:#C85119;}
	.st68{fill:#1A1718;}
	.st69{fill:none;stroke:#96AFCE;stroke-width:0.5236;stroke-miterlimit:10;}
	.st70{fill:none;stroke:#808080;stroke-width:0.736;stroke-miterlimit:10;}
	.st71{fill:none;stroke:#25524A;stroke-width:1.193;stroke-miterlimit:10;}
	.st72{fill:#37B2B5;stroke:#37B2B5;stroke-width:0.6822;stroke-miterlimit:10;}
	.st73{fill:#737373;}
	.st74{fill:#0B4485;}
	.st75{fill:none;stroke:#262728;stroke-width:1.1895;stroke-miterlimit:10;}
	.st76{fill:#6E1215;}
	.st77{opacity:0.88;}
	.st78{fill:#DE001C;}
	.st79{fill:#DF001B;}
	.st80{fill:#020201;stroke:#FFFFFF;stroke-width:0.5409;stroke-miterlimit:10;}
	.st81{fill:#DF001B;stroke:#FFFFFF;stroke-width:0.5409;stroke-miterlimit:10;}
	.st82{fill:#FFFFFF;stroke:#FFFFFF;stroke-width:2;stroke-miterlimit:10;}
	.st83{fill:#23985B;}
	.st84{fill:#262728;}
	.st85{fill:none;stroke:#FFFFFF;stroke-width:1.6144;stroke-miterlimit:10;}
	.st86{fill:none;stroke:#737373;stroke-width:0.7652;stroke-miterlimit:10;}
	.st87{fill:none;stroke:#808080;stroke-width:0.3675;stroke-miterlimit:10;}
	.st88{fill:none;stroke:#40A6E2;stroke-width:1.408;stroke-miterlimit:10;}
	.st89{fill:#DF001B;stroke:#FFFFFF;stroke-width:0.4562;stroke-miterlimit:10;}
	.st90{fill:#1A1818;}
</style>
<g>
	<g class="st5">
		<g>
			<path class="st6" d="M10.6,17.2c0.4,0,0.7-0.2,0.9-0.6c0.2-0.5,0.4-1.1,0.5-1.6c0.2-0.5,0.5-0.7,1-0.5c0.3,0.1,0.5,0.5,0.3,1
				c-0.5,1.5-1,3-1.5,4.5c-0.1,0.3-0.1,0.6-0.3,0.8c-0.2,0.4-0.6,0.5-0.9,0.4c-0.3-0.1-0.5-0.5-0.4-0.9c0.1-0.4,0.3-0.7,0.4-1.1
				c0.2-0.5-0.1-1-0.6-1.2c-0.5-0.1-1,0.1-1.2,0.6c-0.5,1.5-1,3-1.5,4.5c-0.2,0.5-0.4,1.1-0.5,1.6c-0.2,0.6,0,1.1,0.5,1.2
				c0.5,0.2,1-0.1,1.2-0.7c0.1-0.4,0.2-0.8,0.4-1.1c0.1-0.4,0.5-0.6,0.9-0.5c0.4,0.1,0.6,0.4,0.5,0.9c-0.1,0.6,0.1,1,0.6,1.2
				c0.5,0.1,0.9-0.1,1.2-0.7c0.1-0.2,0.1-0.4,0.2-0.6c0.2-0.5,0.5-0.7,0.9-0.6c0.4,0.1,0.6,0.5,0.4,1c-0.8,2.5-1.7,5-2.6,7.5
				c-0.1,0.3-0.2,0.6,0,0.9c0.2,0.3,0.5,0.5,0.9,0.5c0.4,0,0.7-0.2,0.8-0.6c0.3-0.8,0.5-1.5,0.8-2.3c0.8-2.4,1.6-4.9,2.5-7.3
				c0.1-0.2,0.1-0.4,0.1-0.6c0-0.4-0.3-0.7-0.7-0.9c-0.4-0.1-0.8,0.1-1,0.4c-0.1,0.1-0.1,0.3-0.2,0.4c-0.2,0.3-0.5,0.3-0.8,0.2
				c-0.3-0.2-0.5-0.5-0.3-0.9c0.3-1,0.7-2,1-3c0.6-1.6,1.1-3.3,1.7-4.9c0.1-0.4,0.4-0.7,0.8-0.6c0.5,0.1,0.7,0.5,0.5,1
				c-0.5,1.5-1,3-1.5,4.5c-0.2,0.6,0,1,0.4,1.2c0.5,0.2,1.1,0,1.3-0.6c0.3-0.9,0.6-1.8,0.9-2.7c0.2-0.5,0.5-0.7,0.9-0.6
				c0.4,0.1,0.5,0.5,0.4,1c-1.7,5.1-3.4,10.2-5.2,15.3c-0.2,0.6,0,1.1,0.5,1.3c0.5,0.2,1,0,1.2-0.6c0.2-0.4,0.5-0.6,0.9-0.4
				c0.4,0.1,0.5,0.5,0.4,0.9c-0.5,1.5-1,3.1-1.5,4.6c-0.1,0.4,0,0.9,0.4,1.1c0.4,0.2,0.8,0.2,1.1-0.1c0.1-0.1,0.2-0.3,0.2-0.4
				c0.9-2.6,1.7-5.2,2.6-7.8c0.2-0.6,0-1.1-0.6-1.3c-0.5-0.2-1,0.1-1.2,0.7c-0.1,0.4-0.2,0.7-0.4,1.1c-0.2,0.5-0.5,0.7-0.9,0.6
				c-0.4-0.1-0.5-0.5-0.4-1c0.4-1.3,0.9-2.5,1.3-3.8c1.3-4,2.7-8,4-11.9c0.3-0.8,0.1-1.3-0.5-1.5c-0.6-0.2-1,0.1-1.3,0.9
				c0,0.1-0.1,0.3-0.1,0.4c-0.1,0.4-0.5,0.6-0.9,0.5c-0.4-0.1-0.6-0.5-0.4-0.9c1.4-4.2,2.8-8.4,4.2-12.6c0.1-0.3,0.2-0.6,0.3-0.9
				c0.2-0.6,0-1.1-0.5-1.2c-0.5-0.2-1,0.1-1.2,0.7c-0.2,0.7-0.5,1.4-0.7,2.1c-0.2,0.5-0.5,0.7-0.9,0.5c-0.4-0.1-0.6-0.5-0.4-1
				c0.1-0.3,0.2-0.5,0.3-0.8c0.1-0.5-0.1-1-0.6-1.1c-0.5-0.2-1,0.1-1.1,0.5c-0.5,1.5-1,2.9-1.5,4.4c-0.2,0.5,0.1,1,0.6,1.2
				c0.5,0.1,0.9-0.1,1.1-0.6c0.2-0.5,0.4-1,0.5-1.5c0.2-0.4,0.5-0.6,0.8-0.5c0.4,0.1,0.6,0.5,0.4,0.9c-0.6,1.9-1.3,3.8-1.9,5.7
				c-0.1,0.4-0.5,0.6-0.8,0.4c-0.4-0.1-0.6-0.5-0.4-0.9c0.2-0.5,0.3-1,0.5-1.5c0.2-0.6,0-1.1-0.5-1.3c-0.5-0.2-1,0.1-1.2,0.7
				c-0.3,1.1-0.7,2.1-1,3.2c-0.2,0.6-0.5,1.3-0.7,1.9c-0.2,0.4-0.5,0.7-0.9,0.5c-0.4-0.1-0.6-0.5-0.4-1c0.5-1.4,0.9-2.8,1.4-4.2
				C14.8,6.8,15.4,5,16,3.1c0.2-0.6,0-1-0.5-1.2c-0.5-0.2-1,0.1-1.2,0.6c-0.5,1.4-0.9,2.7-1.4,4.1c-0.2,0.6-0.8,0.7-1.2,0.3
				c-0.2-0.2-0.3-0.4-0.2-0.7c0.1-0.2,0.2-0.5,0.2-0.7C12,5,11.7,4.5,11.3,4.4c-0.5-0.2-1,0-1.2,0.5c-0.5,1.5-1,3-1.5,4.6
				c-0.1,0.4,0.1,0.9,0.5,1c0.4,0.2,0.9,0.1,1.1-0.4c0.3-0.6,0.5-1.2,0.7-1.9C11,8,11.2,7.7,11.5,7.7c0.6-0.1,1,0.4,0.8,1
				c-0.4,1.2-0.8,2.4-1.2,3.6c-0.4,1.3-0.9,2.5-1.3,3.8C9.6,16.7,10,17.2,10.6,17.2z"/>
		</g>
		<g>
			<path class="st6" d="M30.1,26c0,0.6,0.2,1,0.7,1.1c0.5,0.1,0.9-0.2,1.1-0.7c0.3-0.8,0.5-1.5,0.8-2.3c0.2-0.5-0.1-1-0.6-1.2
				c-0.5-0.2-1,0.1-1.2,0.6c-0.1,0.3-0.2,0.6-0.3,0.9c-0.2,0.4-0.5,0.6-0.9,0.4c-0.3-0.1-0.5-0.5-0.4-0.9c0.1-0.5-0.1-1-0.6-1.1
				c-0.5-0.1-0.9,0.1-1.1,0.6c-0.1,0.3-0.2,0.6-0.3,1c-0.1,0.4-0.5,0.6-0.9,0.5c-0.4-0.1-0.6-0.5-0.4-0.9c0.9-2.8,1.9-5.6,2.8-8.3
				c0.4-1.1,0.7-2.1,1.1-3.2c0.2-0.7-0.3-1.4-1-1.2c-0.4,0.1-0.6,0.3-0.7,0.7c-0.1,0.3-0.3,0.5-0.6,0.5c-0.3,0-0.5-0.1-0.6-0.3
				c-0.2-0.2-0.1-0.5,0-0.7c0.7-2,1.4-4.1,2.1-6.1c0.2-0.6,0.4-1.2,0.6-1.7c0.2-0.4,0.5-0.7,0.9-0.5c0.4,0.1,0.6,0.5,0.5,0.9
				c-0.2,0.8,0.2,1.3,0.9,1.3c0.4,0,0.7-0.2,0.8-0.6c0.3-1,0.7-2,1-2.9c0.1-0.5-0.1-0.9-0.6-1.1c-0.4-0.1-0.9,0.1-1.1,0.5
				c-0.1,0.2-0.2,0.4-0.2,0.7c-0.2,0.5-0.5,0.7-0.9,0.6c-0.4-0.1-0.5-0.5-0.4-1c0.2-0.7-0.2-1.3-0.9-1.2c-0.4,0-0.6,0.2-0.8,0.6
				c-0.5,1.5-1.1,3.1-1.5,4.6c-0.2,0.6-0.4,1.2-0.6,1.7c-0.2,0.4-0.5,0.6-0.9,0.4C25,7.5,24.9,7.1,25,6.7c0.6-1.8,1.2-3.6,1.8-5.4
				c0.2-0.5,0-0.9-0.3-1.1c-0.3-0.2-0.7-0.2-1.1,0c-0.2,0.1-0.3,0.3-0.4,0.6c-0.3,1.1-0.6,2.2-1,3.2c-0.5,1.3-0.9,2.5-1.3,3.8
				c-0.5,1.3-0.9,2.6-1.3,3.9c-0.2,0.6,0,1.1,0.5,1.2c0.5,0.2,1-0.1,1.2-0.7c0.4-1.2,0.8-2.3,1.2-3.5c0.1-0.3,0.3-0.5,0.7-0.5
				c0.3,0,0.6,0.2,0.6,0.6c0,0.2,0,0.3-0.1,0.5c-0.9,2.6-1.8,5.2-2.6,7.8c-0.2,0.5,0,1,0.4,1.2c0.4,0.2,0.9,0.1,1.2-0.2
				c0.1-0.1,0.2-0.3,0.2-0.5c0.2-0.7,0.5-1.4,0.7-2.1c0.1-0.4,0.5-0.6,0.8-0.5c0.4,0.1,0.5,0.4,0.5,0.8c0,0.4-0.2,0.6-0.3,0.9
				c-0.8,2.4-1.6,4.8-2.4,7.2c-0.1,0.4-0.3,0.6-0.7,0.6c-0.5,0-0.8-0.4-0.6-1c0.3-0.9,0.6-1.7,0.9-2.6c0.2-0.6,0-1.1-0.5-1.3
				c-0.5-0.2-1,0.1-1.2,0.7c-0.8,2.2-1.5,4.5-2.3,6.7c-0.3,0.8,0.2,1.4,0.9,1.3c0.3,0,0.6-0.2,0.7-0.5c0.1-0.2,0.1-0.4,0.2-0.5
				c0.2-0.3,0.5-0.5,0.8-0.4c0.4,0.1,0.5,0.5,0.4,0.9c-0.1,0.2-0.2,0.5-0.2,0.7c-0.2,0.6,0,1.1,0.6,1.3c0.5,0.2,1-0.1,1.2-0.7
				c0.3-1,0.7-2.1,1-3.1c0.1-0.4,0.4-0.6,0.8-0.5c0.4,0.1,0.6,0.4,0.5,0.9c-0.1,0.6,0.1,1.1,0.6,1.2c0.5,0.2,1-0.1,1.2-0.7
				c0.1-0.4,0.3-0.8,0.4-1.2c0.2-0.5,0.5-0.7,0.8-0.6C30,25.2,30.2,25.5,30.1,26z"/>
		</g>
		<g>
			<path class="st6" d="M6.3,7.8C6,7.8,5.7,8,5.6,8.4c-0.7,2-1.4,4.1-2.1,6.1c-0.2,0.5,0.1,1,0.5,1.2c0.5,0.2,1,0,1.2-0.6
				c0.1-0.3,0.2-0.6,0.3-0.9c0.1-0.4,0.5-0.6,0.9-0.5c0.4,0.1,0.6,0.5,0.5,0.9c-0.5,1.5-1,3.1-1.6,4.6c0,0.1-0.1,0.3-0.2,0.4
				c-0.2,0.3-0.4,0.4-0.8,0.3C4,19.7,3.8,19.4,3.9,19c0-0.2,0.1-0.4,0.2-0.7c0.1-0.5-0.1-1-0.5-1.1c-0.5-0.2-1,0-1.2,0.6
				c-0.4,1-0.7,2.1-1,3.1c-0.2,0.5,0.1,1,0.5,1.1c0.6,0.2,1,0,1.2-0.6c0.1-0.2,0.1-0.4,0.2-0.6c0.1-0.4,0.5-0.6,0.9-0.5
				c0.4,0.1,0.6,0.5,0.5,0.9c-0.2,0.6-0.4,1.2-0.6,1.8c-0.3,0.7-0.5,1.5-0.7,2.2c-0.2,0.5,0,1,0.5,1.2c0.5,0.2,1-0.1,1.2-0.6
				c1.2-3.5,2.3-6.9,3.5-10.4c0.3-1,0.7-2,1-2.9c0.1-0.4,0-0.8-0.3-1.1c-0.3-0.2-0.7-0.2-1,0c-0.2,0.1-0.3,0.3-0.4,0.5
				c-0.1,0.2-0.1,0.4-0.2,0.6C7.3,13.1,7,13.2,6.6,13c-0.3-0.1-0.5-0.5-0.4-0.9c0.3-1,0.7-2.1,1-3.1C7.5,8.3,7.1,7.8,6.3,7.8z"/>
		</g>
		<g>
			<path class="st6" d="M30.5,16.6c-0.3,0-0.6,0.2-0.7,0.5c-0.2,0.6-0.5,1.3-0.7,2c-0.1,0.4,0.1,0.9,0.5,1.1c0.4,0.2,0.9,0,1.2-0.4
				c0.4-0.6,0.9-0.7,1.3-0.1c0.1,0.2,0.1,0.4,0.1,0.6c-0.1,0.4-0.3,0.7-0.4,1.1c-0.2,0.6,0,1.1,0.5,1.2c0.5,0.2,1-0.1,1.2-0.7
				c0.3-1,0.6-1.9,1-2.9c0.2-0.5,0.5-0.7,0.9-0.6c0.4,0.1,0.5,0.5,0.4,1c-0.1,0.2-0.1,0.4-0.2,0.6c-0.1,0.5,0.1,1,0.6,1.2
				c0.5,0.2,1-0.1,1.2-0.6c0.4-1.1,0.8-2.2,1.1-3.3c0.2-0.6-0.1-1.1-0.6-1.2c-0.5-0.2-1,0.1-1.2,0.6c-0.1,0.2-0.1,0.4-0.2,0.7
				c-0.2,0.4-0.5,0.6-0.9,0.5c-0.4-0.1-0.6-0.5-0.4-1c0.6-1.7,1.1-3.4,1.7-5c0.1-0.2,0.1-0.4,0.2-0.5c0.1-0.5-0.1-1-0.6-1.1
				c-0.4-0.1-1,0-1.1,0.5c-0.3,1-0.7,2-1,2.9c-0.3,1-0.7,1.9-1,2.9c-0.2,0.6-0.4,1.1-0.6,1.7c-0.1,0.4-0.5,0.6-0.8,0.5
				c-0.4-0.1-0.6-0.4-0.5-0.9C31.5,17.1,31.2,16.6,30.5,16.6z"/>
		</g>
		<g>
			<path class="st6" d="M35.9,8.9c0,0.5,0.3,0.9,0.7,1c0.4,0.1,0.9-0.1,1-0.6c0.1-0.2,0.1-0.4,0.2-0.7c0.2-0.4,0.5-0.6,0.9-0.5
				c0.4,0.1,0.6,0.5,0.4,1c-0.6,1.7-1.1,3.4-1.7,5.1c-0.2,0.6,0,1.1,0.5,1.3c0.5,0.2,0.9,0,1.2-0.5c0.2-0.4,0.5-0.5,0.9-0.4
				c0.3,0.1,0.5,0.5,0.4,0.9c-0.3,0.8-0.6,1.6-0.8,2.5c-0.2,0.6,0,1.1,0.5,1.3c0.5,0.2,1-0.1,1.2-0.7c0.4-1.3,0.9-2.6,1.3-3.9
				c0.1-0.4,0.1-0.8-0.2-1c-0.3-0.2-0.6-0.3-0.9-0.2c-0.3,0.1-0.4,0.3-0.5,0.5c-0.2,0.4-0.5,0.6-0.9,0.4c-0.4-0.1-0.5-0.5-0.4-0.9
				c0.6-1.9,1.3-3.8,1.9-5.6c0.2-0.5,0-0.9-0.4-1.1c-0.3-0.2-0.8-0.2-1.1,0.1C40,6.9,39.9,7,39.8,7.2c-0.2,0.4-0.5,0.6-0.9,0.4
				c-0.4-0.1-0.5-0.5-0.4-0.9c0.1-0.5,0.3-1,0.5-1.4c0.2-0.6,0-1.1-0.5-1.3c-0.5-0.2-1,0.1-1.2,0.7c-0.4,1.3-0.9,2.6-1.3,4
				C35.9,8.7,35.9,8.9,35.9,8.9z"/>
		</g>
		<g>
			<path class="st6" d="M28.8,10c0,0.5,0.3,0.8,0.7,0.9c0.4,0.1,0.9-0.1,1-0.5c0.1-0.2,0.2-0.4,0.2-0.7c0.1-0.4,0.5-0.6,0.9-0.5
				c0.4,0.1,0.6,0.5,0.4,0.9c-0.2,0.8-0.5,1.5-0.7,2.2c-0.2,0.7-0.5,1.4-0.7,2c-0.2,0.6,0,1.1,0.6,1.2c0.5,0.2,1-0.1,1.2-0.7
				c1.3-4,2.7-7.9,4-11.9c0.2-0.6,0-1.1-0.5-1.3c-0.5-0.2-1,0.1-1.2,0.7C34,4.4,33.4,6.2,32.8,8c-0.2,0.6-0.6,0.8-1,0.6
				c-0.3-0.1-0.5-0.5-0.4-0.8c0-0.2,0.1-0.3,0.1-0.5c0.1-0.5-0.1-0.9-0.6-1.1c-0.4-0.2-0.9,0-1.1,0.4c-0.4,1.1-0.8,2.1-1.1,3.2
				C28.8,10,28.8,10,28.8,10z"/>
		</g>
		<g>
			<path class="st6" d="M7.8,27.6c0-0.6-0.2-1-0.7-1.1c-0.5-0.1-0.9,0.2-1.1,0.7c-0.2,0.5-0.3,0.9-0.5,1.4c-0.2,0.5,0,1,0.4,1.2
				c0.4,0.2,0.9,0.1,1.2-0.4c0.3-0.4,0.6-0.5,1-0.3c0.3,0.2,0.4,0.5,0.3,1c-0.1,0.3-0.2,0.6-0.3,0.9c-0.2,0.6,0.1,1.1,0.6,1.2
				c0.5,0.1,1-0.1,1.1-0.6c0.4-1.2,0.8-2.4,1.2-3.6c0.2-0.6,0-1.1-0.6-1.2c-0.5-0.2-1,0.1-1.2,0.7c-0.1,0.2-0.1,0.3-0.2,0.5
				c-0.2,0.5-0.4,0.7-0.8,0.6C7.9,28.4,7.7,28.1,7.8,27.6z"/>
		</g>
		<g>
			<path class="st6" d="M41.5,12.3c0,0.5,0.3,0.9,0.7,1c0.4,0.1,0.9-0.1,1-0.5c0.2-0.4,0.3-0.9,0.5-1.3c0.1-0.4-0.1-0.9-0.5-1
				c-0.4-0.2-0.9-0.1-1.1,0.3C41.8,11.2,41.7,11.8,41.5,12.3z"/>
		</g>
		<g>
			<path class="st6" d="M15.7,42.5c0.7,0,0.9-0.6,1-1.3c0.1-0.5-0.4-0.9-0.9-0.9c-0.7,0-1,0.7-1.1,1.4
				C14.8,42.1,15.2,42.5,15.7,42.5z"/>
		</g>
	</g>
	<g>
		<path class="st6" d="M30.9,53.5c0,1.1-0.1,2-0.4,2.9c-0.3,0.9-0.6,1.6-1.1,2.2c-0.5,0.6-1.1,1.1-1.9,1.4c-0.8,0.3-1.6,0.5-2.6,0.5
			c-1,0-1.8-0.1-2.6-0.4s-1.3-0.7-1.8-1.3c-0.5-0.6-0.8-1.3-1.1-2.1c-0.2-0.8-0.3-1.8-0.3-2.9c0-1,0.1-2,0.4-2.8
			c0.2-0.8,0.6-1.6,1.1-2.2s1.1-1,1.9-1.4c0.8-0.3,1.6-0.5,2.6-0.5c1,0,1.8,0.1,2.5,0.4c0.7,0.3,1.3,0.7,1.8,1.3
			c0.5,0.6,0.8,1.2,1.1,2.1C30.7,51.4,30.9,52.4,30.9,53.5z M29,53.6c0-0.7-0.1-1.4-0.2-2.1c-0.1-0.6-0.4-1.2-0.7-1.7
			c-0.3-0.5-0.7-0.8-1.2-1.1s-1.1-0.4-1.9-0.4c-0.8,0-1.4,0.1-1.9,0.4c-0.5,0.3-0.9,0.7-1.3,1.1c-0.3,0.5-0.6,1-0.7,1.7
			c-0.1,0.6-0.2,1.3-0.2,2c0,0.8,0.1,1.5,0.2,2.1c0.1,0.6,0.3,1.2,0.6,1.7c0.3,0.5,0.7,0.8,1.2,1.1c0.5,0.3,1.1,0.4,1.9,0.4
			c0.8,0,1.4-0.1,1.9-0.4c0.5-0.3,0.9-0.7,1.3-1.2c0.3-0.5,0.5-1,0.7-1.7C28.9,55,29,54.3,29,53.6z"/>
		<path class="st6" d="M41.1,58.5c0,0.1,0,0.2,0,0.3c0,0.1,0,0.2,0,0.2c0,0.1,0,0.1-0.1,0.2c0,0-0.1,0.1-0.2,0.2
			c-0.1,0.1-0.2,0.2-0.4,0.3s-0.4,0.2-0.7,0.3c-0.3,0.1-0.5,0.2-0.8,0.2c-0.3,0.1-0.6,0.1-0.9,0.1c-0.7,0-1.2-0.1-1.7-0.3
			c-0.5-0.2-0.9-0.5-1.3-0.9c-0.3-0.4-0.6-0.9-0.8-1.5c-0.2-0.6-0.3-1.3-0.3-2.1c0-0.9,0.1-1.7,0.3-2.3s0.5-1.2,0.9-1.6
			c0.4-0.4,0.8-0.7,1.3-0.9c0.5-0.2,1.1-0.3,1.7-0.3c0.3,0,0.6,0,0.8,0.1s0.5,0.1,0.8,0.2s0.4,0.2,0.6,0.3c0.2,0.1,0.3,0.2,0.4,0.3
			c0.1,0.1,0.1,0.1,0.2,0.2c0,0,0.1,0.1,0.1,0.2c0,0.1,0,0.1,0,0.2c0,0.1,0,0.2,0,0.3c0,0.3,0,0.4-0.1,0.6c-0.1,0.1-0.1,0.2-0.2,0.2
			c-0.1,0-0.2-0.1-0.4-0.2c-0.1-0.1-0.3-0.2-0.5-0.4c-0.2-0.1-0.4-0.3-0.7-0.4c-0.3-0.1-0.6-0.2-1-0.2c-0.8,0-1.4,0.3-1.9,0.9
			c-0.4,0.6-0.6,1.5-0.6,2.7c0,0.6,0.1,1.1,0.2,1.5c0.1,0.4,0.3,0.8,0.5,1.1c0.2,0.3,0.5,0.5,0.8,0.7s0.7,0.2,1.1,0.2
			c0.4,0,0.7-0.1,1-0.2s0.5-0.3,0.8-0.4c0.2-0.1,0.4-0.3,0.5-0.4c0.1-0.1,0.3-0.2,0.3-0.2c0,0,0.1,0,0.1,0c0,0,0.1,0.1,0.1,0.1
			c0,0.1,0,0.1,0.1,0.2C41.1,58.3,41.1,58.4,41.1,58.5z"/>
		<path class="st6" d="M49.1,59.2c0,0.2,0,0.4,0,0.5c0,0.1-0.1,0.2-0.1,0.3c-0.1,0.1-0.1,0.1-0.2,0.2s-0.2,0.1-0.4,0.1
			c-0.1,0-0.3,0.1-0.4,0.1c-0.2,0-0.3,0-0.5,0c-0.5,0-0.9-0.1-1.2-0.2c-0.3-0.1-0.6-0.3-0.8-0.6c-0.2-0.3-0.4-0.6-0.5-1
			c-0.1-0.4-0.1-0.8-0.1-1.4v-5.3h-1.3c-0.1,0-0.2-0.1-0.2-0.2c-0.1-0.1-0.1-0.3-0.1-0.5c0-0.1,0-0.2,0-0.3s0-0.2,0.1-0.2
			c0-0.1,0.1-0.1,0.1-0.1c0,0,0.1,0,0.1,0h1.3v-2.2c0,0,0-0.1,0-0.1s0.1-0.1,0.1-0.1c0.1,0,0.2-0.1,0.3-0.1c0.1,0,0.2,0,0.4,0
			c0.2,0,0.3,0,0.4,0c0.1,0,0.2,0,0.3,0.1c0.1,0,0.1,0.1,0.1,0.1c0,0,0,0.1,0,0.1v2.2h2.3c0.1,0,0.1,0,0.1,0c0,0,0.1,0.1,0.1,0.1
			c0,0.1,0.1,0.1,0.1,0.2c0,0.1,0,0.2,0,0.3c0,0.2,0,0.4-0.1,0.5c-0.1,0.1-0.1,0.2-0.2,0.2h-2.3V57c0,0.6,0.1,1.1,0.3,1.4
			s0.5,0.5,1,0.5c0.2,0,0.3,0,0.4,0c0.1,0,0.2-0.1,0.3-0.1s0.2-0.1,0.2-0.1c0.1,0,0.1,0,0.2,0c0,0,0.1,0,0.1,0c0,0,0.1,0,0.1,0.1
			c0,0,0,0.1,0,0.2C49.1,59,49.1,59.1,49.1,59.2z"/>
		<path class="st6" d="M60.7,55.2c0,0.7-0.1,1.4-0.3,2.1c-0.2,0.6-0.5,1.2-0.9,1.6c-0.4,0.5-0.9,0.8-1.5,1.1c-0.6,0.3-1.3,0.4-2,0.4
			c-0.8,0-1.4-0.1-2-0.3s-1-0.5-1.4-1c-0.4-0.4-0.6-0.9-0.8-1.6c-0.2-0.6-0.3-1.3-0.3-2.1c0-0.7,0.1-1.4,0.3-2.1
			c0.2-0.6,0.5-1.2,0.9-1.6s0.9-0.8,1.5-1.1c0.6-0.2,1.3-0.4,2-0.4c0.8,0,1.4,0.1,2,0.3c0.6,0.2,1,0.5,1.4,1
			c0.4,0.4,0.7,0.9,0.8,1.6C60.6,53.8,60.7,54.5,60.7,55.2z M59,55.4c0-0.5,0-1-0.1-1.4c-0.1-0.4-0.2-0.8-0.5-1.2s-0.5-0.6-0.9-0.8
			c-0.4-0.2-0.8-0.3-1.4-0.3c-0.5,0-0.9,0.1-1.3,0.3s-0.7,0.4-0.9,0.7c-0.2,0.3-0.4,0.7-0.5,1.1c-0.1,0.4-0.2,0.9-0.2,1.4
			c0,0.5,0,1,0.1,1.4c0.1,0.4,0.2,0.8,0.5,1.2c0.2,0.3,0.5,0.6,0.9,0.8c0.4,0.2,0.8,0.3,1.4,0.3c0.5,0,0.9-0.1,1.3-0.3
			c0.4-0.2,0.7-0.4,0.9-0.7c0.2-0.3,0.4-0.7,0.5-1.1C58.9,56.4,59,55.9,59,55.4z"/>
		<path class="st6" d="M72.6,55.2c0,0.8-0.1,1.5-0.3,2.1C72.2,58,72,58.5,71.6,59s-0.7,0.8-1.2,1c-0.5,0.2-1,0.4-1.7,0.4
			c-0.3,0-0.6,0-0.8-0.1s-0.5-0.2-0.7-0.3c-0.2-0.1-0.5-0.3-0.7-0.5c-0.2-0.2-0.5-0.4-0.8-0.7v1.1c0,0.1,0,0.1,0,0.1
			c0,0-0.1,0.1-0.1,0.1c-0.1,0-0.1,0-0.2,0.1s-0.2,0-0.4,0c-0.1,0-0.3,0-0.3,0s-0.2,0-0.2-0.1c-0.1,0-0.1-0.1-0.1-0.1
			c0,0,0-0.1,0-0.1V46.4c0-0.1,0-0.1,0-0.1c0,0,0.1-0.1,0.1-0.1c0.1,0,0.2,0,0.3-0.1c0.1,0,0.2,0,0.4,0c0.2,0,0.3,0,0.4,0
			c0.1,0,0.2,0,0.3,0.1s0.1,0.1,0.1,0.1c0,0,0,0.1,0,0.1v5.5c0.3-0.3,0.5-0.5,0.8-0.7c0.3-0.2,0.5-0.3,0.7-0.5
			c0.2-0.1,0.5-0.2,0.7-0.3s0.5-0.1,0.8-0.1c0.7,0,1.2,0.1,1.7,0.4c0.5,0.3,0.9,0.6,1.1,1.1s0.5,1,0.6,1.6
			C72.6,53.9,72.6,54.6,72.6,55.2z M70.9,55.4c0-0.5,0-0.9-0.1-1.4c-0.1-0.4-0.2-0.8-0.4-1.2c-0.2-0.3-0.4-0.6-0.7-0.8
			c-0.3-0.2-0.7-0.3-1.1-0.3c-0.2,0-0.4,0-0.6,0.1c-0.2,0.1-0.4,0.2-0.6,0.3s-0.4,0.3-0.7,0.5c-0.2,0.2-0.5,0.5-0.8,0.8v3.6
			c0.5,0.6,0.9,1,1.3,1.3c0.4,0.3,0.9,0.4,1.3,0.4c0.4,0,0.8-0.1,1.1-0.3c0.3-0.2,0.5-0.5,0.7-0.8c0.2-0.3,0.3-0.7,0.4-1.1
			C70.9,56.3,70.9,55.8,70.9,55.4z"/>
		<path class="st6" d="M84,55c0,0.3-0.1,0.5-0.2,0.6c-0.1,0.1-0.3,0.2-0.5,0.2h-6c0,0.5,0.1,1,0.2,1.4c0.1,0.4,0.3,0.8,0.5,1
			c0.2,0.3,0.5,0.5,0.9,0.7c0.4,0.2,0.8,0.2,1.4,0.2c0.4,0,0.8,0,1.2-0.1c0.3-0.1,0.6-0.2,0.9-0.2c0.2-0.1,0.5-0.2,0.6-0.2
			c0.2-0.1,0.3-0.1,0.4-0.1c0,0,0.1,0,0.1,0c0,0,0.1,0.1,0.1,0.1c0,0,0,0.1,0,0.2c0,0.1,0,0.2,0,0.3c0,0.1,0,0.2,0,0.2
			c0,0.1,0,0.1,0,0.2c0,0.1,0,0.1-0.1,0.1c0,0-0.1,0.1-0.1,0.1c0,0-0.1,0.1-0.3,0.2S82.7,60,82.4,60c-0.3,0.1-0.6,0.2-1,0.2
			c-0.4,0.1-0.8,0.1-1.2,0.1c-0.8,0-1.4-0.1-2-0.3c-0.6-0.2-1-0.5-1.4-0.9c-0.4-0.4-0.7-0.9-0.9-1.6c-0.2-0.6-0.3-1.3-0.3-2.2
			c0-0.8,0.1-1.5,0.3-2.1s0.5-1.2,0.9-1.6c0.4-0.4,0.8-0.8,1.4-1c0.5-0.2,1.1-0.3,1.8-0.3c0.7,0,1.3,0.1,1.8,0.3s0.9,0.5,1.2,0.9
			c0.3,0.4,0.6,0.8,0.7,1.4c0.2,0.5,0.2,1.1,0.2,1.7V55z M82.3,54.5c0-0.9-0.2-1.6-0.6-2.1c-0.4-0.5-1-0.8-1.8-0.8
			c-0.4,0-0.8,0.1-1.1,0.2c-0.3,0.2-0.6,0.4-0.8,0.6s-0.4,0.6-0.5,0.9c-0.1,0.3-0.2,0.7-0.2,1.1H82.3z"/>
		<path class="st6" d="M93,51.4c0,0.1,0,0.3,0,0.4c0,0.1,0,0.2,0,0.2c0,0.1,0,0.1-0.1,0.1c0,0-0.1,0-0.1,0s-0.1,0-0.2,0
			c-0.1,0-0.2-0.1-0.3-0.1c-0.1,0-0.2-0.1-0.3-0.1c-0.1,0-0.3,0-0.4,0c-0.2,0-0.3,0-0.5,0.1c-0.2,0.1-0.3,0.2-0.5,0.3
			c-0.2,0.2-0.4,0.4-0.6,0.6c-0.2,0.3-0.4,0.6-0.6,0.9v6c0,0.1,0,0.1,0,0.1c0,0-0.1,0.1-0.1,0.1c-0.1,0-0.1,0-0.3,0.1s-0.2,0-0.4,0
			c-0.2,0-0.3,0-0.4,0s-0.2,0-0.3-0.1c-0.1,0-0.1-0.1-0.1-0.1c0,0,0-0.1,0-0.1v-9.1c0-0.1,0-0.1,0-0.1s0.1-0.1,0.1-0.1
			c0.1,0,0.1-0.1,0.2-0.1c0.1,0,0.2,0,0.4,0c0.1,0,0.3,0,0.4,0c0.1,0,0.2,0,0.2,0.1c0.1,0,0.1,0.1,0.1,0.1s0,0.1,0,0.1v1.3
			c0.3-0.4,0.5-0.7,0.7-0.9s0.4-0.4,0.6-0.5c0.2-0.1,0.4-0.2,0.6-0.3c0.2-0.1,0.4-0.1,0.6-0.1c0.1,0,0.2,0,0.3,0s0.2,0,0.3,0.1
			c0.1,0,0.2,0.1,0.3,0.1c0.1,0,0.2,0.1,0.2,0.1c0,0,0.1,0.1,0.1,0.1c0,0,0,0.1,0,0.1c0,0,0,0.1,0,0.2S93,51.2,93,51.4z"/>
		<path class="st6" d="M110,53.6c0,1-0.1,1.9-0.2,2.8c-0.2,0.8-0.4,1.5-0.8,2.1c-0.4,0.6-0.9,1.1-1.4,1.4c-0.6,0.3-1.3,0.5-2.2,0.5
			c-0.8,0-1.5-0.1-2.1-0.4s-1-0.7-1.4-1.3c-0.3-0.6-0.6-1.3-0.7-2.1c-0.1-0.8-0.2-1.8-0.2-2.9c0-1,0.1-1.9,0.2-2.8
			c0.2-0.8,0.4-1.6,0.8-2.2c0.4-0.6,0.8-1.1,1.4-1.4c0.6-0.3,1.3-0.5,2.2-0.5c0.8,0,1.5,0.1,2.1,0.4c0.6,0.3,1,0.7,1.4,1.3
			c0.3,0.6,0.6,1.3,0.7,2.1C109.9,51.5,110,52.5,110,53.6z M108.2,53.7c0-0.7,0-1.2-0.1-1.8c0-0.5-0.1-1-0.2-1.4s-0.2-0.7-0.4-1
			c-0.1-0.3-0.3-0.5-0.5-0.7s-0.4-0.3-0.7-0.4c-0.3-0.1-0.6-0.1-0.9-0.1c-0.6,0-1,0.1-1.4,0.4c-0.4,0.3-0.6,0.6-0.8,1.1
			c-0.2,0.5-0.3,1-0.4,1.7c-0.1,0.6-0.1,1.3-0.1,2c0,1,0.1,1.8,0.2,2.5c0.1,0.7,0.3,1.2,0.5,1.7c0.2,0.4,0.5,0.7,0.8,0.9
			s0.8,0.3,1.2,0.3c0.4,0,0.7-0.1,1-0.2c0.3-0.1,0.5-0.3,0.7-0.5c0.2-0.2,0.4-0.5,0.5-0.8c0.1-0.3,0.2-0.7,0.3-1.1
			c0.1-0.4,0.1-0.8,0.2-1.3S108.2,54.2,108.2,53.7z"/>
		<path class="st6" d="M121.2,59.5c0,0.1,0,0.2,0,0.3s0,0.2-0.1,0.2c0,0.1-0.1,0.1-0.1,0.1c0,0-0.1,0-0.1,0H114c0,0-0.1,0-0.1,0
			c0,0-0.1-0.1-0.1-0.1c0-0.1-0.1-0.1-0.1-0.2s0-0.2,0-0.3c0-0.1,0-0.2,0-0.3s0-0.2,0.1-0.2c0-0.1,0.1-0.1,0.1-0.1c0,0,0.1,0,0.1,0
			h2.7v-10l-2.5,1.5c-0.1,0.1-0.2,0.1-0.3,0.1c-0.1,0-0.1,0-0.2,0c0,0-0.1-0.1-0.1-0.2c0-0.1,0-0.2,0-0.4c0-0.1,0-0.2,0-0.3
			c0-0.1,0-0.1,0-0.2s0-0.1,0.1-0.1s0.1-0.1,0.1-0.1l3-1.9c0,0,0.1,0,0.1-0.1c0,0,0.1,0,0.2,0s0.1,0,0.2,0c0.1,0,0.2,0,0.3,0
			c0.2,0,0.3,0,0.4,0s0.2,0,0.3,0.1c0.1,0,0.1,0.1,0.1,0.1c0,0,0,0.1,0,0.1v11.5h2.4c0.1,0,0.1,0,0.2,0c0,0,0.1,0.1,0.1,0.1
			c0,0.1,0.1,0.1,0.1,0.2S121.2,59.4,121.2,59.5z"/>
		<path class="st6" d="M129.1,55c0,0.3,0,0.4-0.1,0.5c-0.1,0.1-0.1,0.2-0.3,0.2h-4.2c-0.1,0-0.2-0.1-0.3-0.2s-0.1-0.3-0.1-0.5
			c0-0.3,0-0.4,0.1-0.5s0.2-0.2,0.3-0.2h4.2c0.1,0,0.1,0,0.1,0c0,0,0.1,0.1,0.1,0.1c0,0.1,0.1,0.1,0.1,0.2
			C129.1,54.8,129.1,54.9,129.1,55z"/>
		<path class="st6" d="M140.7,53.6c0,1-0.1,1.9-0.2,2.8c-0.2,0.8-0.4,1.5-0.8,2.1c-0.4,0.6-0.9,1.1-1.4,1.4
			c-0.6,0.3-1.3,0.5-2.2,0.5c-0.8,0-1.5-0.1-2.1-0.4s-1-0.7-1.4-1.3c-0.3-0.6-0.6-1.3-0.7-2.1c-0.1-0.8-0.2-1.8-0.2-2.9
			c0-1,0.1-1.9,0.2-2.8c0.2-0.8,0.4-1.6,0.8-2.2c0.4-0.6,0.8-1.1,1.4-1.4c0.6-0.3,1.3-0.5,2.2-0.5c0.8,0,1.5,0.1,2.1,0.4
			c0.6,0.3,1,0.7,1.4,1.3c0.3,0.6,0.6,1.3,0.7,2.1C140.6,51.5,140.7,52.5,140.7,53.6z M138.9,53.7c0-0.7,0-1.2-0.1-1.8
			c0-0.5-0.1-1-0.2-1.4s-0.2-0.7-0.4-1c-0.1-0.3-0.3-0.5-0.5-0.7s-0.4-0.3-0.7-0.4c-0.3-0.1-0.6-0.1-0.9-0.1c-0.6,0-1,0.1-1.4,0.4
			c-0.4,0.3-0.6,0.6-0.8,1.1c-0.2,0.5-0.3,1-0.4,1.7c-0.1,0.6-0.1,1.3-0.1,2c0,1,0.1,1.8,0.2,2.5c0.1,0.7,0.3,1.2,0.5,1.7
			c0.2,0.4,0.5,0.7,0.8,0.9s0.8,0.3,1.2,0.3c0.4,0,0.7-0.1,1-0.2c0.3-0.1,0.5-0.3,0.7-0.5c0.2-0.2,0.4-0.5,0.5-0.8
			c0.1-0.3,0.2-0.7,0.3-1.1c0.1-0.4,0.1-0.8,0.2-1.3S138.9,54.2,138.9,53.7z"/>
		<path class="st6" d="M151.8,59.4c0,0.1,0,0.2,0,0.3c0,0.1,0,0.2-0.1,0.2c0,0.1-0.1,0.1-0.1,0.1c-0.1,0-0.1,0-0.2,0h-7.3
			c-0.1,0-0.2,0-0.2,0c-0.1,0-0.1-0.1-0.2-0.1c-0.1-0.1-0.1-0.1-0.1-0.2c0-0.1,0-0.2,0-0.4c0-0.1,0-0.3,0-0.4c0-0.1,0-0.2,0.1-0.3
			c0-0.1,0.1-0.2,0.1-0.2c0.1-0.1,0.1-0.2,0.2-0.2l2.6-2.7c0.6-0.6,1.1-1.2,1.5-1.7c0.4-0.5,0.6-0.9,0.8-1.3
			c0.2-0.4,0.3-0.8,0.4-1.1c0.1-0.3,0.1-0.6,0.1-0.9c0-0.3,0-0.6-0.1-0.8s-0.2-0.5-0.4-0.7c-0.2-0.2-0.4-0.4-0.7-0.5
			c-0.3-0.1-0.6-0.2-1-0.2c-0.4,0-0.8,0.1-1.1,0.2c-0.3,0.1-0.6,0.2-0.9,0.4c-0.3,0.1-0.5,0.3-0.6,0.4c-0.2,0.1-0.3,0.2-0.4,0.2
			c0,0-0.1,0-0.1,0c0,0-0.1-0.1-0.1-0.1s0-0.1-0.1-0.2c0-0.1,0-0.2,0-0.4c0-0.1,0-0.2,0-0.3c0-0.1,0-0.1,0-0.2s0-0.1,0.1-0.2
			s0.1-0.1,0.2-0.2c0.1-0.1,0.2-0.2,0.4-0.3c0.2-0.1,0.4-0.2,0.8-0.4c0.3-0.1,0.6-0.2,1-0.3s0.7-0.1,1.1-0.1c0.6,0,1.2,0.1,1.7,0.3
			s0.9,0.4,1.2,0.7c0.3,0.3,0.5,0.7,0.7,1.1c0.2,0.4,0.2,0.9,0.2,1.3c0,0.4,0,0.8-0.1,1.3c-0.1,0.4-0.2,0.9-0.5,1.3
			c-0.2,0.5-0.6,1-1,1.6c-0.5,0.6-1.1,1.3-1.8,2l-2.1,2.2h5.7c0.1,0,0.1,0,0.2,0c0.1,0,0.1,0.1,0.1,0.1c0,0.1,0.1,0.1,0.1,0.2
			S151.8,59.3,151.8,59.4z"/>
	</g>
	<g>
		<rect x="19.3" y="42.7" class="st6" width="134.5" height="0.3"/>
	</g>
	<g>
		<path class="st74" d="M32.6,35.5h-4l-5.3-17.8h-0.1v17.8h-3.8V8.7h4.5l4.8,16h0.1v-16h3.8V35.5z"/>
		<path class="st74" d="M49.9,35.5h-4.1l-0.9-6.1h-4.5l-0.9,6.1h-4.1l4.6-26.8h5.2L49.9,35.5z M42.6,14.4L41,25.7h3.4l-1.6-11.3
			H42.6z"/>
		<path class="st74" d="M63.7,10.5c1.1,1.2,1.7,2.8,1.7,5v2.1c0,2.2-0.6,3.9-1.7,5c-1.1,1.2-2.8,1.7-5,1.7h-1.8v11.1h-4.1V8.7h5.9
			C60.9,8.7,62.5,9.3,63.7,10.5z M56.9,12.5v8.2h1.6c1,0,1.7-0.3,2.1-0.8c0.5-0.5,0.7-1.4,0.7-2.5v-1.6c0-1.1-0.2-2-0.7-2.5
			c-0.5-0.5-1.2-0.8-2.1-0.8H56.9z"/>
		<path class="st74" d="M79.1,10c1.1,1.1,1.7,2.7,1.7,4.7v2.4l-3.9,0.2v-2.2c0-2.1-0.8-3.1-2.3-3.1c-0.7,0-1.3,0.2-1.7,0.7
			c-0.4,0.5-0.6,1.1-0.6,2v14.6c0,0.9,0.2,1.6,0.6,2c0.4,0.5,1,0.7,1.7,0.7c1.5,0,2.3-1,2.3-3.1v-3l3.9,0.2v3.2c0,2-0.6,3.6-1.7,4.7
			c-1.1,1.1-2.7,1.7-4.6,1.7c-2,0-3.5-0.6-4.6-1.7c-1.1-1.1-1.6-2.7-1.6-4.7V14.8c0-2,0.5-3.6,1.6-4.7c1.1-1.1,2.6-1.7,4.6-1.7
			C76.4,8.3,77.9,8.9,79.1,10z"/>
		<path class="st74" d="M91.7,24.1h-8.1v-3.9h8.1V24.1z"/>
		<path class="st74" d="M105,9.9c1.1,1.1,1.6,2.6,1.6,4.5v1c0,1.3-0.2,2.6-0.7,4c-0.5,1.3-1.4,3-2.6,5l-4.5,7.2h7.8v3.8H94.1V32
			l6-9.7c0.9-1.5,1.5-2.7,1.9-3.8c0.3-1.1,0.5-2.2,0.5-3.3v-0.5c0-1.8-0.8-2.7-2.3-2.7c-0.8,0-1.3,0.3-1.7,0.8
			c-0.4,0.5-0.6,1.3-0.6,2.4v1.3l-3.9-0.2v-1.8c0-2,0.5-3.5,1.6-4.6c1.1-1.1,2.6-1.6,4.6-1.6C102.3,8.3,103.9,8.9,105,9.9z"/>
		<path class="st74" d="M120.9,10.1c1.2,1.2,1.7,2.9,1.7,5v14c0,2.1-0.6,3.7-1.7,5c-1.2,1.2-2.8,1.8-4.8,1.8c-2,0-3.6-0.6-4.8-1.8
			c-1.2-1.2-1.7-2.9-1.7-5v-14c0-2.1,0.6-3.7,1.7-5c1.2-1.2,2.8-1.8,4.8-1.8C118.1,8.3,119.7,8.9,120.9,10.1z M114.2,12.9
			c-0.4,0.5-0.6,1.3-0.6,2.3v13.9c0,1,0.2,1.8,0.6,2.3c0.4,0.5,1,0.8,1.9,0.8c0.8,0,1.4-0.3,1.9-0.8c0.4-0.5,0.6-1.3,0.6-2.3V15.1
			c0-1-0.2-1.8-0.6-2.3c-0.4-0.5-1-0.8-1.9-0.8C115.3,12.1,114.6,12.3,114.2,12.9z"/>
		<path class="st74" d="M136.2,9.9c1.1,1.1,1.6,2.6,1.6,4.5v1c0,1.3-0.2,2.6-0.7,4c-0.5,1.3-1.4,3-2.6,5l-4.5,7.2h7.8v3.8h-12.5V32
			l6-9.7c0.9-1.5,1.5-2.7,1.9-3.8c0.3-1.1,0.5-2.2,0.5-3.3v-0.5c0-1.8-0.8-2.7-2.3-2.7c-0.8,0-1.3,0.3-1.7,0.8
			c-0.4,0.5-0.6,1.3-0.6,2.4v1.3l-3.9-0.2v-1.8c0-2,0.5-3.5,1.6-4.6c1.1-1.1,2.6-1.6,4.6-1.6C133.5,8.3,135.1,8.9,136.2,9.9z"/>
		<path class="st74" d="M141.9,34.2c-1.1-1.1-1.7-2.7-1.7-4.7v-1l3.9-0.2v0.7c0,2.1,0.8,3.2,2.4,3.2c0.8,0,1.5-0.3,1.9-0.8
			s0.6-1.3,0.6-2.3v-4.5c0-1-0.2-1.8-0.7-2.3c-0.4-0.5-1.1-0.8-1.9-0.8c-0.7,0-1.2,0.2-1.7,0.6c-0.4,0.4-0.7,1-0.7,1.7l0,0.5
			l-3.7-0.2l0.8-15.3h10.9v3.8h-7.4l-0.3,6.3h0.1c0.7-0.8,1.7-1.2,3.2-1.2c1.7,0,3,0.6,4,1.7c1,1.1,1.5,2.8,1.5,4.9v5.1
			c0,2.1-0.6,3.7-1.7,4.8c-1.1,1.2-2.7,1.7-4.8,1.7C144.6,35.9,143,35.3,141.9,34.2z"/>
	</g>
</g>
</svg>
