<?xml version="1.0" encoding="utf-8"?>
<!-- Generator: Adobe Illustrator 24.3.0, SVG Export Plug-In . SVG Version: 6.00 Build 0)  -->
<svg version="1.1" id="Layer_1" xmlns="http://www.w3.org/2000/svg" xmlns:xlink="http://www.w3.org/1999/xlink" x="0px" y="0px"
	 viewBox="0 0 213 65" style="enable-background:new 0 0 213 65;" xml:space="preserve">
<style type="text/css">
	.st0{fill:#2F2F2F;}
	.st1{fill:#B21A81;}
	.st2{fill:#FFFFFF;}
	.st3{fill:#3C3E3D;}
	.st4{fill:#31BFC3;}
	.st5{opacity:0.25;}
	.st6{fill:#808080;}
	.st7{fill:none;stroke:#808080;stroke-width:0.3983;stroke-miterlimit:10;}
	.st8{fill:#93B48E;}
	.st9{opacity:0.88;fill:none;stroke:#93B48E;stroke-width:0.914;stroke-miterlimit:10;}
	.st10{fill:#E9A036;}
	.st11{fill:#A95A21;}
	.st12{fill:none;stroke:#DE001C;stroke-width:0.4874;stroke-miterlimit:10;}
	.st13{fill:#1C816E;}
	.st14{fill:#5BB9A4;}
	.st15{fill:#122D24;}
	.st16{fill:#175929;}
	.st17{fill:#80BC27;}
	.st18{fill:#7FBA28;}
	.st19{fill:#7FB829;}
	.st20{fill:#80BC28;}
	.st21{fill:#80BC2A;}
	.st22{fill:#3C7651;}
	.st23{fill:#3B7550;}
	.st24{fill:#80AA94;}
	.st25{fill:#FAFCFC;}
	.st26{fill:#25524A;}
	.st27{fill:#A9A01F;}
	.st28{fill:#23995B;}
	.st29{fill:#1D4479;}
	.st30{fill:none;stroke:#262728;stroke-width:1.0774;stroke-miterlimit:10;}
	.st31{fill:#28378C;}
	.st32{fill:#40A6E2;}
	.st33{fill:#FCCE1C;}
	.st34{fill:none;stroke:#737373;stroke-width:1.11;stroke-miterlimit:10;}
	.st35{fill:#00B9D7;}
	.st36{fill:none;stroke:#FFFFFF;stroke-width:1.5619;stroke-miterlimit:10;}
	.st37{fill:#2B3A3B;}
	.st38{fill:none;stroke:#6E1215;stroke-width:0.6419;stroke-miterlimit:10;}
	.st39{fill:none;stroke:#6E1215;stroke-width:0.4466;stroke-miterlimit:10;}
	.st40{opacity:0.88;fill:none;stroke:#93B48E;stroke-width:0.5596;stroke-miterlimit:10;}
	.st41{fill:none;stroke:#FFFFFF;stroke-width:0.9404;stroke-miterlimit:10;}
	.st42{fill:none;stroke:#737373;stroke-width:0.5012;stroke-miterlimit:10;}
	.st43{fill:none;stroke:#FFFFFF;stroke-width:1.3888;stroke-miterlimit:10;}
	.st44{fill:none;stroke:#737373;stroke-width:0.7403;stroke-miterlimit:10;}
	.st45{fill:none;stroke:#23995B;stroke-width:0.6635;stroke-miterlimit:10;}
	.st46{fill:none;stroke:#23995B;stroke-width:0.3962;stroke-miterlimit:10;}
	.st47{fill:none;stroke:#28378C;stroke-width:2;stroke-miterlimit:10;}
	.st48{fill:none;stroke:#28378C;stroke-width:1.0909;stroke-miterlimit:10;}
	.st49{fill:#96AFCE;}
	.st50{fill:#3B3888;}
	.st51{fill:none;stroke:#DE001C;stroke-width:0.451;stroke-miterlimit:10;}
	.st52{fill:none;stroke:#DE001C;stroke-width:0.1983;stroke-miterlimit:10;}
	.st53{fill:none;stroke:#DE001C;stroke-width:0.3536;stroke-miterlimit:10;}
	.st54{fill:none;stroke:#808080;stroke-width:0.3418;stroke-miterlimit:10;}
	.st55{fill:none;stroke:#808080;stroke-width:0.2279;stroke-miterlimit:10;}
	.st56{fill:#37B2B5;}
	.st57{fill:#000100;}
	.st58{fill:none;stroke:#C85119;stroke-width:0.8469;stroke-miterlimit:10;}
	.st59{fill:#C85119;}
	.st60{fill:#1A1718;}
	.st61{fill:none;stroke:#96AFCE;stroke-width:0.5236;stroke-miterlimit:10;}
	.st62{fill:#F2F3F1;}
	.st63{fill:#F2F3F2;}
	.st64{fill:#F1F6F2;}
	.st65{fill:#EFF2F0;}
	.st66{fill:#DFE8E2;}
	.st67{fill:#EDF0EC;}
	.st68{fill:none;stroke:#808080;stroke-width:0.736;stroke-miterlimit:10;}
	.st69{fill:none;stroke:#25524A;stroke-width:1.193;stroke-miterlimit:10;}
	.st70{fill:#3CA835;}
	.st71{fill:#020201;}
	.st72{fill:#37B2B5;stroke:#37B2B5;stroke-width:0.6822;stroke-miterlimit:10;}
	.st73{fill:#737373;}
	.st74{fill:#0B4485;}
	.st75{fill:none;stroke:#262728;stroke-width:1.1895;stroke-miterlimit:10;}
	.st76{fill:#6E1215;}
	.st77{opacity:0.88;}
	.st78{fill:#DE001C;}
	.st79{fill:#DF001B;}
	.st80{fill:#020201;stroke:#FFFFFF;stroke-width:0.5409;stroke-miterlimit:10;}
	.st81{fill:#DF001B;stroke:#FFFFFF;stroke-width:0.5409;stroke-miterlimit:10;}
	.st82{fill:#FFFFFF;stroke:#FFFFFF;stroke-width:2;stroke-miterlimit:10;}
	.st83{fill:#23985B;}
	.st84{fill:#262728;}
	.st85{fill:none;stroke:#FFFFFF;stroke-width:1.6144;stroke-miterlimit:10;}
	.st86{fill:none;stroke:#737373;stroke-width:0.7652;stroke-miterlimit:10;}
	.st87{fill:none;stroke:#808080;stroke-width:0.3675;stroke-miterlimit:10;}
	.st88{fill:none;stroke:#40A6E2;stroke-width:1.408;stroke-miterlimit:10;}
	.st89{fill:#DF001B;stroke:#FFFFFF;stroke-width:0.4562;stroke-miterlimit:10;}
	.st90{fill:#1A1818;}
</style>
<g>
	<g>
		<path class="st1" d="M92.9,27.7c-2.9,1.5-5.3,2-7.8,2c-7.7,0-11.6-5-11.6-10.2c0-5,3.9-10.3,12-10.3c3.6,0,6.1,1.1,7.1,1.8v4.6
			c-0.8-0.6-3.4-2.2-6.8-2.2c-4.1,0-7.2,2.4-7.2,6c0,3.9,3.3,6.1,7.1,6.1c1.9,0,3.6-0.5,5.3-1.4l1.9-1.1V27.7z"/>
		<path class="st1" d="M115.4,15.2c-2.3-1.1-4.8-1.8-7.4-1.8c-2.3,0-3.7,0.6-4.6,1.1c-1.4,0.9-2.7,2.6-2.7,5.1
			c0,3.8,3.2,5.9,6.6,5.9c1.2,0,2.4-0.3,3.6-0.7v-2.3H108v-3.7h7.9V27c-2,1.7-5.3,2.7-8.5,2.7c-6.4,0-11.8-3.8-11.8-10.2
			c0-6.2,5-10.2,12-10.2c3.9,0,6.6,1.1,7.8,1.6V15.2z"/>
		<path class="st1" d="M133.6,14.9c-1.4-0.7-3.9-1.9-6.4-1.9c-2.9,0-3,1.4-3,1.6c0,1.2,2,1.9,4.8,2.9c2.5,0.9,5.5,2.4,5.5,6.3
			c0,4.6-4.8,5.9-7.8,5.9c-3.4,0-6.5-1.6-7-1.9v-4.3c1.7,1.1,4,2.5,6.9,2.5c0.6,0,3,0,3-1.8c0-1.3-1.1-1.7-3.8-2.6
			c-2.9-1-6.5-2.4-6.5-6.6c0-3,2.5-5.7,7.5-5.7c1.6,0,3.6,0.2,6.7,1.5V14.9z"/>
		<path class="st1" d="M144.3,24.6h-7.6v-3.9h7.6V24.6z"/>
		<path class="st1" d="M160.1,29.4h-13.2v-0.6c0.1-0.1,3.1-4,4.4-5.9c1.2-1.8,3.3-4.8,3.3-7.3c0-1.6-1.2-2.8-2.7-2.8
			c-1.1,0-2.9,0.7-4.8,2.5v-4.2c2.5-1.6,3.9-1.9,5.6-1.9c4.8,0,6.3,3,6.3,5.6c0,1.3-0.2,2.7-2.4,6.3c-1,1.6-2.6,3.7-3,4.1h6.4V29.4z
			"/>
		<path class="st1" d="M169.6,29.7c-1.1,0-3.1-0.2-4.8-2.4c-1.9-2.4-2-6.1-2-7.8c0-8.4,4.1-10.2,6.8-10.2c2.2,0,6.7,1.3,6.7,10.1
			C176.2,27.4,172.7,29.7,169.6,29.7z M169.5,13c-1.9,0-2.2,2.8-2.2,6.7c0,2,0,6.3,2.2,6.3c1.3,0,1.7-1.4,1.9-2.4
			c0.2-1.5,0.3-3.8,0.3-4.3C171.6,14.4,170.9,13,169.5,13z"/>
		<path class="st1" d="M192.3,29.4h-13.2v-0.6c0.1-0.1,3.1-4,4.4-5.9c1.2-1.8,3.3-4.8,3.3-7.3c0-1.6-1.2-2.8-2.7-2.8
			c-1.1,0-2.9,0.7-4.8,2.5v-4.2c2.5-1.6,3.9-1.9,5.6-1.9c4.8,0,6.3,3,6.3,5.6c0,1.3-0.2,2.7-2.4,6.3c-1,1.6-2.6,3.7-3,4.1h6.4V29.4z
			"/>
		<path class="st1" d="M201.4,16.8c0.3-0.1,0.6-0.2,1.2-0.2c3.4,0,5.6,3,5.6,6.3c0,3.9-2.8,6.8-6.6,6.8c-3.5,0-6.6-2.4-6.6-7.1
			c0-2.7,1.1-5.2,2.7-7.8l3.4-5.6h4.9L201.4,16.8z M201.6,20.1c-1.2,0-2.2,1-2.2,3c0,2.1,1,2.9,2.2,2.9c1.6,0,2.2-1.5,2.2-3
			C203.8,21.5,203.1,20.1,201.6,20.1z"/>
	</g>
	<g>
		<path class="st71" d="M82.4,42.1v10.9c0,1.4-0.4,2.4-1.2,3.2s-1.9,1.2-3.2,1.2c-1.3,0-2.4-0.4-3.2-1.2c-0.8-0.8-1.2-1.9-1.2-3.2
			h2.5c0,0.7,0.2,1.2,0.5,1.6c0.3,0.4,0.8,0.6,1.5,0.6c0.6,0,1.1-0.2,1.5-0.6c0.3-0.4,0.5-0.9,0.5-1.6V42.1H82.4z"/>
		<path class="st71" d="M99.5,45.3v12H97v-1.4c-0.4,0.5-0.9,0.9-1.5,1.2c-0.6,0.3-1.3,0.4-2,0.4c-0.9,0-1.8-0.2-2.5-0.6
			c-0.8-0.4-1.3-1-1.8-1.7c-0.4-0.8-0.6-1.7-0.6-2.8v-7.1h2.5V52c0,1.1,0.3,1.9,0.8,2.5c0.5,0.6,1.3,0.9,2.2,0.9s1.7-0.3,2.2-0.9
			S97,53.1,97,52v-6.7H99.5z"/>
		<path class="st71" d="M107.4,41.1v16.2h-2.5V41.1H107.4z"/>
		<path class="st71" d="M123.7,45.3L116.3,63h-2.6l2.4-5.9l-4.7-11.8h2.8l3.4,9.2l3.5-9.2H123.7z"/>
		<path class="st71" d="M136.6,53.9c1.4-1.2,2.5-2.2,3.3-3c0.8-0.8,1.5-1.6,2-2.4c0.5-0.8,0.8-1.7,0.8-2.5c0-0.9-0.2-1.6-0.6-2.1
			s-1.1-0.7-2-0.7c-0.9,0-1.5,0.3-2,0.8c-0.5,0.5-0.7,1.3-0.8,2.2H135c0-1.7,0.5-2.9,1.5-3.8c1-0.9,2.2-1.3,3.6-1.3
			c1.6,0,2.8,0.4,3.7,1.3c0.9,0.9,1.3,2,1.3,3.5c0,1-0.3,2.1-0.8,3s-1.2,1.8-1.9,2.6s-1.7,1.6-2.8,2.7l-1,0.9h6.9v2.1H135v-1.8
			L136.6,53.9z"/>
		<path class="st71" d="M151.5,42.2c1-0.8,2.2-1.1,3.7-1.1c1,0,1.9,0.2,2.6,0.5c0.7,0.4,1.3,0.9,1.7,1.5c0.4,0.6,0.6,1.3,0.6,2.1
			c0,0.9-0.2,1.7-0.7,2.3c-0.5,0.6-1.1,1.1-1.7,1.3v0.1c0.9,0.3,1.5,0.7,2,1.4c0.5,0.7,0.7,1.6,0.7,2.7c0,0.9-0.2,1.6-0.6,2.3
			c-0.4,0.7-1,1.2-1.7,1.6c-0.8,0.4-1.7,0.6-2.8,0.6c-1.6,0-2.9-0.4-3.9-1.2c-1-0.8-1.6-2-1.6-3.5h2.4c0.1,0.8,0.4,1.4,0.9,1.9
			c0.5,0.5,1.3,0.7,2.2,0.7c0.9,0,1.6-0.2,2.1-0.7c0.5-0.5,0.7-1.1,0.7-1.9c0-1-0.3-1.7-1-2.2c-0.6-0.4-1.6-0.6-3-0.6h-0.6v-2.1h0.6
			c1.2,0,2.1-0.2,2.7-0.6c0.6-0.4,0.9-1,0.9-1.8c0-0.7-0.2-1.3-0.7-1.7c-0.5-0.4-1.1-0.6-1.9-0.6c-0.8,0-1.4,0.2-1.9,0.6
			c-0.5,0.4-0.7,0.9-0.8,1.5h-2.4C150,44,150.6,42.9,151.5,42.2z"/>
		<path class="st71" d="M174.7,48.4v2.1h-9v-2.1H174.7z"/>
		<path class="st71" d="M181.5,53.9c1.4-1.2,2.5-2.2,3.3-3c0.8-0.8,1.5-1.6,2-2.4c0.5-0.8,0.8-1.7,0.8-2.5c0-0.9-0.2-1.6-0.6-2.1
			s-1.1-0.7-2-0.7c-0.9,0-1.5,0.3-2,0.8c-0.5,0.5-0.7,1.3-0.8,2.2h-2.4c0-1.7,0.5-2.9,1.5-3.8c1-0.9,2.2-1.3,3.6-1.3
			c1.6,0,2.8,0.4,3.7,1.3c0.9,0.9,1.3,2,1.3,3.5c0,1-0.3,2.1-0.8,3s-1.2,1.8-1.9,2.6s-1.7,1.6-2.8,2.7l-1,0.9h6.9v2.1h-10.6v-1.8
			L181.5,53.9z"/>
		<path class="st71" d="M194.5,54v-1.9l7.3-10.5h3v10.2h2V54h-2v3.3h-2.4V54H194.5z M202.6,44.1l-5.2,7.7h5.2V44.1z"/>
	</g>
	<g>
		<polygon class="st0" points="73.4,35.7 90.4,35.5 107.3,35.4 141.2,35.3 175.1,35.4 192,35.5 209,35.7 192,35.9 175.1,36 
			141.2,36.1 107.3,36 90.4,35.9 		"/>
	</g>
	<g>
		<g>
			<g>
				<path class="st1" d="M34.8,46.7c-3.6,0-4.5,1.7-2.6,4.9c1.2,2.1,0.7,4.3-1.4,5.3c-2,1-3.7,0.4-4.9-1.4c-1.2-1.9-0.5-4.2,1.8-5.1
					c2-0.8,2.7-2.7,2.1-4c-0.7-1.6-2.9-2.8-4.5-2.7c-1.3,0.1-2.8,1.6-2.5,3.8c0.4,2.5-1,4-3.5,4.2c-2.1,0.1-3.9-1.6-3.7-3.7
					c0.1-2.6,1.7-3.9,4.2-3.5c2.2,0.3,3.7-1.2,3.8-2.4c0.1-1.6-1.1-3.8-2.7-4.5c-1.3-0.6-3.2,0-4,2.1c-1,2.3-3.2,3-5.1,1.9
					c-1.9-1-2.5-3.3-1.4-5.1c1.2-1.9,3.4-2.4,5.4-1c1.7,1.3,3.7,0.9,4.5-0.3c0.9-1.4,1-3.9,0-5.3c-0.8-1.1-2.8-1.5-4.5-0.1
					c-1.9,1.5-4.3,0.8-5.3-1.1c-1.1-2-0.5-3.7,1.3-4.9c1.8-1.3,4.3-0.6,5.2,1.6c0.9,2.2,2.8,2.9,4.2,2.2c1.5-0.7,2.8-2.9,2.6-4.6
					c-0.2-1.4-1.7-2.6-3.9-2.3c-2.5,0.3-4.1-1.4-4.1-3.6c0.1-2.3,1.4-3.5,3.6-3.6c2.2-0.1,4,1.6,3.7,4c-0.3,2.3,1.1,3.9,2.6,3.9
					c1.5,0.1,3.6-1.3,4.3-2.6c0.7-1.4,0-3.3-2.2-4.1c-2.1-0.9-2.8-2.8-1.7-5c0.9-1.9,3.3-2.6,5.1-1.5c2,1.3,2.7,3.2,1.2,5.1
					c-1.4,1.8-1.3,3.7,0,4.8c1.3,1.1,3.7,0.8,5.1,0.1c1.2-0.6,1.8-2.6,0.7-4.1c-0.8-1.1-1.3-2.2-1-3.6c0.5-1.7,1.7-2.7,3.4-2.8
					c1.9-0.1,3.2,1,3.7,2.8c0.5,1.7-0.2,3.1-1.8,4c-0.9,0.5-2.2,0.6-2.3,2c-0.1,0.9-1.2,2.1,0,2.7c1.5,0.7,2.8,2.7,4.6,2
					c1.1-0.5,2.4-1.4,2.2-3.4c-0.4-2.8,1.2-4.4,3.6-4.4c2.3,0.1,3.5,1.3,3.7,3.5c0.2,2.3-1.6,4-4.3,3.7c-2.1-0.2-3.4,1.1-3.6,2.3
					c-0.3,1.8,1.1,3.8,2.6,4.6c1.2,0.6,3.1,0.1,4-1.9c1-2.4,3.2-3,5.1-2c1.9,1,2.6,3.3,1.5,5.1c-1.1,2-3.4,2.5-5.6,0.9
					c-1.7-1.2-3.7-0.7-4.3,0.3c-1,1.4-0.9,3.9,0,5.4c0.6,1,2.5,1.6,4.2,0.4c2.3-1.6,4.4-1.2,5.6,0.8c1.1,1.8,0.5,4.1-1.3,5.1
					c-2,1.1-4.2,0.4-5.3-2.1c-0.8-1.9-2.8-2.3-3.8-1.8c-1.5,0.8-2.8,2.8-2.7,4.6c0.1,1.2,1.5,2.6,3.5,2.4c2.8-0.2,4.4,1.3,4.4,3.6
					c0,2.1-1.7,3.7-3.9,3.6c-2.3-0.1-3.7-1.7-3.4-4.6c0.2-1.9-1.2-2.4-2-3.3c-0.9-0.9-1.6,0.3-2.3,0.7c-3.9,2.3-3.9,3.5,0,6.1
					c1.8,1.2,2.4,3,1.2,4.9c-1.1,1.9-2.9,2.5-4.9,1.4c-2-1-2.4-2.8-1.7-4.8c0.1-0.2,0.2-0.3,0.3-0.5C39.3,48.4,38.4,46.7,34.8,46.7z
					"/>
			</g>
			<g>
				<path class="st2" d="M42.9,32.4c0.1,4.4-3.6,8.2-8.1,8.2c-4.5,0-8.1-3.6-8.1-8.1c0-4.4,3.5-8,7.9-8.1C39,24.2,42.9,28,42.9,32.4
					z"/>
			</g>
			<g>
				<path class="st1" d="M34.8,36.6c-2.3,0-4.2-1.9-4.2-4.1c0-2.3,1.9-4.2,4.2-4.2c2.3,0,4.2,1.8,4.2,4.1
					C39,34.7,37.1,36.6,34.8,36.6z"/>
			</g>
			<g>
				<circle class="st3" cx="10.1" cy="18.2" r="2.6"/>
			</g>
			<g>
				<circle class="st3" cx="6.4" cy="32.5" r="2.6"/>
			</g>
			<g>
				<circle class="st3" cx="10.4" cy="46.7" r="2.6"/>
			</g>
			<g>
				<circle class="st3" cx="21" cy="57" r="2.6"/>
			</g>
			<g>
				<circle class="st3" cx="35.4" cy="60.6" r="2.6"/>
			</g>
			<g>
				<circle class="st3" cx="49.6" cy="56.5" r="2.6"/>
			</g>
			<g>
				<circle class="st3" cx="59.8" cy="45.9" r="2.6"/>
			</g>
			<g>
				<circle class="st3" cx="63.3" cy="31.6" r="2.6"/>
			</g>
			<g>
				<circle class="st3" cx="59.2" cy="17.4" r="2.6"/>
			</g>
			<g>
				<circle class="st3" cx="48.5" cy="7.2" r="2.6"/>
			</g>
			<g>
				<circle class="st3" cx="34.2" cy="3.7" r="2.6"/>
			</g>
			<g>
				<circle class="st3" cx="20" cy="7.9" r="2.6"/>
			</g>
		</g>
		<g>
			<rect x="37.2" y="29.9" class="st1" width="6.8" height="4.3"/>
		</g>
	</g>
</g>
</svg>
